<?xml version="1.0" encoding="utf-8"?>
<!-- Generator: Adobe Illustrator 22.1.0, SVG Export Plug-In . SVG Version: 6.00 Build 0)  -->
<svg version="1.1" id="Capa_1" xmlns="http://www.w3.org/2000/svg" xmlns:xlink="http://www.w3.org/1999/xlink" x="0px" y="0px"
	 viewBox="0 0 512 512" style="enable-background:new 0 0 512 512;" xml:space="preserve">
<style type="text/css">
	.st0{fill:#D80027;}
</style>
<g>
	<g>
		<path class="st0" d="M73,77c-98.7,100.9-96.9,263.3,4,362c100.9,98.7,263.3,97,362-3.9c98.7-100.9,97-263.3-3.9-362
			C334.1-25.7,171.7-23.9,73,77z M415,411.6c-85.8,87.7-226.9,89.2-314.5,3.4S11.2,188.1,97,100.5c85.8-87.7,226.9-89.2,314.5-3.4
			C499.2,182.8,500.8,323.9,415,411.6z"/>
		<path class="st0" d="M238.2,94l-70.8,242c-2.1,7.1,0.8,14.8,7,18.8c6.3,4,14.4,3.4,20.1-1.4l62-53.5l63.2,52.1
			c5.7,4.7,13.9,5.1,20.1,1c1-0.6,1.8-1.4,2.6-2.2c4.3-4.4,5.9-10.8,4-16.8l-76-240.4c-2.2-7-8.8-11.8-16.2-11.7
			C246.7,82,240.2,86.9,238.2,94z"/>
	</g>
</g>
</svg>
